# xmcd CD database file
#
# Track frame offsets:
#	150
#	20331
#	44943
#	66615
#	93752
#	118038
#	141101
#	167991
#
# Disc length: 2549 seconds
#
# Revision: 0
# Processed by: cddbd v1.5.2PL0 Copyright (c) Steve Scherf et al.
# Submitted via: NeoAudio 9.9.9
#
DISCID=7509f308
DTITLE=Jack Grunsky - Relaxing Melodies, The Rain Forest
DYEAR=1900
DGENRE=New Age
TTITLE0=The Amazon
TTITLE1=Temple In The Jungle
TTITLE2=The Waterfall
TTITLE3=The Rain Forest
TTITLE4=The Conquistadors
TTITLE5=Tabatinga
TTITLE6=Sunset In The Rain Forest
TTITLE7=Earth's Last Frontier
EXTD=
EXTT0=
EXTT1=
EXTT2=
EXTT3=
EXTT4=
EXTT5=
EXTT6=
EXTT7=
PLAYORDER=
